<?xml version="1.0" encoding="UTF-8"?>
<svg version="1.1" viewBox="0 0 1873 1873" xmlns="http://www.w3.org/2000/svg">
<path transform="translate(939,66)" d="m0 0c2.7833 2.505 4.5296 5.302 6.4492 8.5039 0.67482 1.1196 1.3496 2.2391 2.0449 3.3926 0.35683 0.59643 0.71366 1.1929 1.0813 1.8074 1.5174 2.5362 3.0443 5.0666 4.5708 7.5973 0.78941 1.3087 1.5784 2.6176 2.3669 3.9268 3.7869 6.2835 7.6318 12.53 11.487 18.772 5.5766 9.0415 11.116 18.104 16.625 27.188 0.3569 0.58844 0.7138 1.1769 1.0815 1.7831 1.7637 2.9082 3.527 5.8166 5.2901 8.7252 7.8964 13.023 15.824 26.027 23.816 38.992 5.6377 9.1466 11.241 18.313 16.812 27.5 0.35663 0.58798 0.71325 1.176 1.0807 1.7818 1.764 2.9086 3.5275 5.8175 5.2909 8.7265 7.8964 13.023 15.824 26.027 23.816 38.992 5.6377 9.1466 11.241 18.313 16.812 27.5 0.35663 0.58798 0.71325 1.176 1.0807 1.7818 1.764 2.9086 3.5275 5.8175 5.2909 8.7265 7.8964 13.023 15.824 26.027 23.816 38.992 5.6377 9.1466 11.241 18.313 16.812 27.5 0.53494 0.88198 0.53494 0.88198 1.0807 1.7818 1.764 2.9086 3.5275 5.8175 5.2909 8.7265 7.8964 13.023 15.824 26.027 23.816 38.992 5.6377 9.1466 11.241 18.313 16.812 27.5 0.53494 0.88198 0.53494 0.88198 1.0807 1.7818 1.764 2.9086 3.5275 5.8175 5.2909 8.7265 7.8964 13.023 15.824 26.027 23.816 38.992 5.6377 9.1466 11.241 18.313 16.812 27.5 0.53494 0.88198 0.53494 0.88198 1.0807 1.7818 1.764 2.9086 3.5275 5.8175 5.2909 8.7265 7.9594 13.127 15.951 26.234 24.003 39.304 1.9977 3.2459 3.9951 6.492 5.9922 9.7383 1.3582 2.2064 2.7176 4.4122 4.0781 6.6172 1.9808 3.2122 3.9559 6.428 5.9297 9.6445 0.60586 0.97969 1.2117 1.9594 1.8359 2.9688 0.54914 0.89719 1.0983 1.7944 1.6641 2.7188 0.48469 0.78762 0.96938 1.5752 1.4688 2.3867 1.0312 1.9258 1.0312 1.9258 1.0312 3.9258 1.2365 0.11535 2.4729 0.2307 3.7468 0.34955 5.847 0.65372 11.551 1.8447 17.304 3.0577 1.1873 0.24683 2.3746 0.49367 3.5979 0.74798 3.2711 0.68094 6.5414 1.3656 9.8114 2.052 3.5226 0.73846 7.0463 1.4721 10.57 2.2064 6.8914 1.437 13.782 2.8785 20.672 4.3216 5.6595 1.1852 11.319 2.3684 16.98 3.5503 1.2173 0.25418 1.2173 0.25418 2.4591 0.5135 1.6481 0.34414 3.2962 0.68827 4.9443 1.0324 48.765 10.184 97.519 20.425 146.27 30.682 6.4721 1.3617 12.944 2.7232 19.416 4.0846 0.71499 0.15039 1.43 0.30078 2.1666 0.45573 23.459 4.9342 46.922 9.8506 70.388 14.755 0.78456 0.16399 1.5691 0.32798 2.3774 0.49693 10.378 2.1693 20.757 4.338 31.136 6.5066 55.918 11.684 111.83 23.414 167.73 35.188 0.84876 0.17877 1.6975 0.35755 2.572 0.54174 21.289 4.4841 42.577 8.9701 63.865 13.458-4.4098 9.1728-12.54 16.811-19.2 24.45-3.1629 3.6351-6.2673 7.3039-9.2996 11.05-4.0776 5.0335-8.3051 9.9233-12.558 14.808-4.9207 5.6545-9.7697 11.367-14.599 17.099-2.277 2.7009-4.5602 5.3965-6.8428 8.0928-0.9167 1.0833-1.8334 2.1666-2.75 3.25-9.1667 10.833-18.333 21.667-27.5 32.5-0.45367 0.53617-0.90734 1.0723-1.3748 1.6248-0.91742 1.0842-1.8349 2.1683-2.7524 3.2524-2.2806 2.6947-4.5602 5.3903-6.8376 8.0876-4.7792 5.6579-9.5796 11.296-14.41 16.91-3.4932 4.0613-6.9395 8.1502-10.312 12.312-4.1431 5.1056-8.4448 10.061-12.765 15.015-3.1618 3.6345-6.2656 7.3023-9.2971 11.047-4.1189 5.0881-8.4015 10.02-12.703 14.953-3.1617 3.6344-6.2654 7.3022-9.2969 11.047-4.1189 5.0881-8.4015 10.02-12.703 14.953-3.1617 3.6344-6.2654 7.3022-9.2969 11.047-4.0776 5.0335-8.3051 9.9233-12.558 14.808-4.9207 5.6545-9.7697 11.367-14.599 17.099-2.277 2.7009-4.5602 5.3965-6.8428 8.0928-0.9167 1.0833-1.8334 2.1666-2.75 3.25l-27.5 32.5c-0.45367 0.53617-0.90734 1.0723-1.3748 1.6248-0.91742 1.0842-1.8349 2.1683-2.7524 3.2524-2.2806 2.6947-4.5602 5.3903-6.8376 8.0876-4.7792 5.6579-9.5796 11.296-14.41 16.91-3.4932 4.0613-6.9395 8.1502-10.312 12.312-4.1431 5.1056-8.4448 10.061-12.765 15.015-3.1618 3.6345-6.2656 7.3023-9.2971 11.047-4.1189 5.0881-8.4015 10.02-12.703 14.953-3.1617 3.6344-6.2654 7.3022-9.2969 11.047-4.1189 5.0881-8.4015 10.02-12.703 14.953-3.1617 3.6344-6.2654 7.3022-9.2969 11.047-3.5397 4.3695-7.1845 8.6332-10.875 12.875-0.54817 0.63212-1.0963 1.2642-1.6611 1.9155-2.7227 3.1385-5.4556 6.2671-8.2061 9.3813-1.003 1.1507-2.0056 2.3018-3.0078 3.4531-0.46583 0.51998-0.93167 1.04-1.4116 1.5757-3.9259 4.5434-4.4983 7.9397-4.1484 13.79 0.14357 1.8504 0.29491 3.7001 0.45221 5.5493 0.081576 1.0246 0.16315 2.0493 0.2472 3.105 0.27688 3.4561 0.56377 6.9112 0.85057 10.367 0.20185 2.4935 0.40308 4.9871 0.60376 7.4807 0.43865 5.4332 0.88166 10.866 1.3285 16.298 0.66437 8.0781 1.3207 16.157 1.9754 24.236 1.1016 13.59 2.2096 27.18 3.3212 40.769 1.101 13.46 2.1991 26.92 3.2932 40.38 0.102 1.2549 0.102 1.2549 0.20606 2.5351 0.34532 4.2485 0.69058 8.497 1.0358 12.746 2.4464 30.105 4.8991 60.209 7.3557 90.313 2.3861 29.241 4.77 58.482 7.1504 87.723 0.07334 0.9009 0.14668 1.8018 0.22224 2.73 1.6025 19.685 3.2046 39.371 4.8064 59.056 0.4948 6.0806 0.98962 12.161 1.4844 18.242 0.27925 3.4316 0.55849 6.8632 0.83772 10.295 1.7127 21.047 3.4272 42.095 5.1441 63.142 0.09986 1.2242 0.09986 1.2242 0.20174 2.473 0.066298 0.81272 0.1326 1.6254 0.2009 2.4628 0.83234 10.204 1.6639 20.408 2.4953 30.612 0.6546 8.0334 1.3099 16.067 1.9663 24.1 0.48892 5.9851 0.97661 11.97 1.4638 17.956 0.19812 2.4313 0.39666 4.8625 0.59564 7.2937 0.26891 3.2862 0.53636 6.5725 0.80342 9.8589 0.078899 0.95971 0.1578 1.9194 0.23909 2.9082 0.070494 0.87124 0.14099 1.7425 0.21362 2.6401 0.061368 0.75211 0.12274 1.5042 0.18596 2.2791 0.10891 1.6505 0.12938 3.3065 0.12938 4.9606-4.7612-1.4785-9.2372-3.3933-13.746-5.5-0.75052-0.34748-1.501-0.69497-2.2743-1.053-2.4737-1.1461-4.9454-2.2966-7.4171-3.447-1.7498-0.81154-3.4998-1.6227-5.25-2.4336-3.6359-1.6849-7.2711-3.3712-10.906-5.0586-7.4959-3.4785-15-6.9391-22.504-10.4-4.0434-1.8648-8.0863-3.7305-12.129-5.5963-0.8033-0.37071-1.6066-0.74142-2.4342-1.1234-4.9361-2.2782-9.8712-4.5585-14.806-6.8403-4.1359-1.9125-8.2722-3.8242-12.409-5.7355-1.2176-0.56263-1.2176-0.56263-2.4597-1.1366-11.858-5.4775-23.741-10.898-35.64-16.286-10.718-4.8555-21.382-9.8189-32.026-14.833-9.9439-4.6816-19.924-9.2764-29.937-13.808-12.426-5.6239-24.816-11.32-37.188-17.062-0.86155-0.39988-1.7231-0.79976-2.6107-1.2118-3.494-1.6218-6.9879-3.2436-10.482-4.8657-9.1297-4.2375-18.268-8.4566-27.408-12.673-0.79962-0.36887-1.5992-0.73775-2.4231-1.1178-3.2272-1.4887-6.4544-2.9774-9.6818-4.4659-5.695-2.6267-11.389-5.2554-17.083-7.8851-15.889-7.3379-31.782-14.666-47.688-21.969-12.631-5.7994-25.256-11.612-37.875-17.438-0.80726-0.37269-1.6145-0.74538-2.4462-1.1294-6.5459-3.0223-13.091-6.0454-19.637-9.0685-5.7221-2.6428-11.444-5.2852-17.167-7.9271-0.80742-0.37277-1.6148-0.74554-2.4467-1.1296-11.804-5.4489-23.614-10.883-35.428-16.308-12.631-5.7994-25.256-11.612-37.875-17.438-0.79596-0.36737-1.5919-0.73475-2.412-1.1133-8.4879-3.9176-16.975-7.8381-25.458-11.765-3.6272-1.6787-7.2548-3.3563-10.883-5.0337-1.7372-0.80367-3.4742-1.6079-5.2108-2.4128-2.4021-1.1132-4.8051-2.2246-7.2083-3.3355-0.71369-0.33138-1.4274-0.66276-2.1627-1.0042-4.916-2.6921-4.916-2.6921-10.18-2.8668-0.71367 0.30926-1.4273 0.61852-2.1626 0.93715-0.81962 0.34949-1.6392 0.69897-2.4837 1.0591-1.3378 0.58771-1.3378 0.58771-2.7026 1.1873-0.93516 0.40163-1.8703 0.80327-2.8338 1.2171-3.0839 1.3266-6.162 2.6662-9.2404 4.0056-2.1498 0.92679-4.3 1.8525-6.4507 2.7771-4.3582 1.8741-8.7148 3.7519-13.07 5.6321-7.6583 3.301-15.341 6.5422-23.031 9.7678-3.8391 1.6104-7.6764 3.2248-11.514 4.8387-0.7729 0.32491-1.5458 0.64983-2.3421 0.98459-9.785 4.1142-19.563 8.2449-29.341 12.375-1.9025 0.80347-3.805 1.6069-5.7075 2.4104-3.8308 1.6178-7.6615 3.2358-11.492 4.8538-8.4771 3.5804-16.955 7.1596-25.432 10.739-4.6852 1.9781-9.3703 3.9563-14.055 5.9345-1.875 0.79167-3.75 1.5833-5.625 2.375l-326.25 137.75c-0.92793 0.39179-1.8559 0.78359-2.8119 1.1873-1.8769 0.79248-3.7539 1.585-5.6308 2.3774-4.6579 1.9667-9.3159 3.9334-13.974 5.9001-8.7899 3.7114-17.58 7.4226-26.37 11.133-4.154 1.7534-8.3079 3.5069-12.462 5.2604-1.9809 0.83617-3.9619 1.6723-5.9429 2.5083-2.7461 1.1589-5.4921 2.3181-8.238 3.4773-0.80521 0.33975-1.6104 0.6795-2.44 1.0295-0.75697 0.31961-1.5139 0.63921-2.2939 0.96851-0.71267 0.29963-1.4253 0.59925-2.1596 0.90796-1.3574 0.57901-2.7093 1.1708-4.0553 1.7759-2.8609 1.2798-4.8213 2.0994-7.9965 2.0994 0.61111-15.755 1.4924-31.476 2.5629-47.206 0.15784-2.3495 0.31544-4.699 0.47282-7.0485 0.42857-6.388 0.86049-12.776 1.293-19.163 0.41967-6.2022 0.8362-12.405 1.2531-18.607 0.85172-12.671 1.7059-25.343 2.5614-38.014 1.1679-17.298 2.3322-34.596 3.4957-51.894 0.54309-8.0744 1.0863-16.149 1.6297-24.223 0.054367-0.80798 0.10873-1.616 0.16475-2.4484 1.2913-19.189 2.5843-38.379 3.8775-57.568 0.056521-0.83866 0.11304-1.6773 0.17128-2.5414 0.57279-8.4991 1.1456-16.998 1.7184-25.497 1.2065-17.901 2.4129-35.802 3.6191-53.704 0.056643-0.84063 0.11329-1.6813 0.17164-2.5474 1.2931-19.191 2.5857-38.381 3.877-57.572 0.081379-1.2094 0.081379-1.2094 0.1644-2.4432 0.54155-8.048 1.083-16.096 1.6244-24.144 1.1626-17.284 2.3266-34.567 3.4933-51.851 0.84949-12.585 1.6974-25.17 2.5436-37.755 0.45851-6.8182 0.9178-13.636 1.3792-20.454 0.42201-6.2365 0.84187-12.473 1.26-18.71 0.1519-2.2599 0.30461-4.5198 0.45818-6.7796 0.20814-3.0644 0.4134-6.1289 0.61794-9.1935 0.060679-0.8831 0.12136-1.7662 0.18388-2.676 1.0633-8.2033 1.0633-8.2033-0.64375-15.866-0.48735-0.47985-0.97469-0.95971-1.4768-1.4541-0.5402-0.55244-1.0804-1.1049-1.637-1.6741-0.58515-0.56646-1.1703-1.1329-1.7732-1.7166-1.2083-1.2305-2.414-2.4636-3.6172-3.6992-0.88897-0.90371-0.88897-0.90371-1.7959-1.8257-2.2166-2.3183-4.2188-4.776-6.2119-7.2876-3.32-4.1485-6.808-8.0628-10.438-11.938-4.4383-4.7386-8.5914-9.6212-12.656-14.688-2.6758-3.211-5.4873-6.2628-8.3438-9.3125-4.4383-4.7387-8.5914-9.6212-12.656-14.688-2.6758-3.211-5.4873-6.2628-8.3438-9.3125-4.4383-4.7387-8.5914-9.6212-12.656-14.688-2.6758-3.211-5.4873-6.2628-8.3438-9.3125-4.4383-4.7387-8.5914-9.6212-12.656-14.688-3.1618-3.7941-6.5292-7.3753-9.9045-10.979-3.097-3.3253-6.0354-6.7209-8.8767-10.271-3.5089-4.375-7.2209-8.4827-11.062-12.562-4.6262-4.9131-8.9727-9.9512-13.191-15.223-2.6614-3.2018-5.4632-6.2397-8.3086-9.2773-4.4383-4.7386-8.5914-9.6212-12.656-14.688-2.6758-3.211-5.4873-6.2628-8.3438-9.3125-4.4383-4.7387-8.5914-9.6212-12.656-14.688-2.6758-3.211-5.4873-6.2628-8.3438-9.3125-4.4383-4.7387-8.5914-9.6212-12.656-14.688-2.6758-3.211-5.4873-6.2628-8.3438-9.3125-4.4383-4.7387-8.5914-9.6212-12.656-14.688-2.6758-3.211-5.4873-6.2628-8.3438-9.3125-4.4383-4.7387-8.5914-9.6212-12.656-14.688-2.6758-3.211-5.4873-6.2628-8.3438-9.3125-4.4383-4.7387-8.5914-9.6212-12.656-14.688-3.1618-3.7941-6.5292-7.3753-9.9045-10.979-3.097-3.3253-6.0354-6.7209-8.8767-10.271-3.5089-4.375-7.2209-8.4827-11.062-12.562-4.6262-4.9131-8.9727-9.9512-13.191-15.223-2.6614-3.2018-5.4632-6.2397-8.3086-9.2773-4.4383-4.7386-8.5914-9.6212-12.656-14.688-2.6758-3.211-5.4873-6.2628-8.3438-9.3125-4.4383-4.7387-8.5914-9.6212-12.656-14.688-2.6758-3.211-5.4873-6.2628-8.3438-9.3125-4.4321-4.732-8.582-9.6051-12.637-14.668-3.2478-3.892-6.7009-7.5787-10.203-11.242-0.48211-0.51047-0.96422-1.0209-1.4609-1.5469-0.63676-0.66479-0.63676-0.66479-1.2864-1.343-2.0161-2.4258-3.6755-5.0701-5.4128-7.7 13.389-3.8639 26.804-7.6093 40.266-11.211 1.8093-0.48549 3.6186-0.97114 5.4278-1.4569 3.8465-1.0325 7.6932-2.0641 11.54-3.0948 9.346-2.5042 18.691-5.0138 28.035-7.5226 3.2288-0.86678 6.4576-1.7334 9.6865-2.5999 20.276-5.4422 40.545-10.908 60.813-16.378 31.156-8.4078 62.316-16.799 93.481-25.174 0.9619-0.25852 1.9238-0.51704 2.9148-0.7834 15.587-4.1892 31.175-8.3774 46.762-12.566 14.608-3.9249 29.215-7.8501 43.823-11.776 0.96222-0.2586 1.9244-0.5172 2.9158-0.78364 31.118-8.3634 62.232-16.746 93.342-25.14 20.879-5.6334 41.76-11.261 62.645-16.873 0.98478-0.26464 1.9696-0.52928 2.9842-0.80194 8.8785-2.3859 17.757-4.7713 26.636-7.1558 19.756-5.3056 39.51-10.617 59.253-15.968 2.6704-0.72375 5.341-1.4472 8.0115-2.1707 7.463-2.0219 14.926-4.0448 22.387-6.074 2.9642-0.80568 5.9289-1.6094 8.8938-2.4126 1.3655-0.37043 2.7308-0.74176 4.0957-1.114 1.8468-0.50363 3.6945-1.004 5.5422-1.5041 1.0297-0.27989 2.0593-0.55979 3.1202-0.84816 2.424-0.59105 2.424-0.59105 4.424-0.59105 0.40944-1.0793 0.40944-1.0793 0.82715-2.1804 1.1535-2.773 2.4702-5.3144 3.9385-7.9329 0.82951-1.4821 0.82951-1.4821 1.6758-2.9941 0.59684-1.0577 1.1937-2.1154 1.8086-3.2051 0.62262-1.1079 1.2452-2.2159 1.8867-3.3574 4.7844-8.4858 9.6783-16.905 14.61-25.306 4.1737-7.1262 8.2369-14.308 12.253-21.524 5.0983-9.1572 10.313-18.237 15.614-27.278 4.469-7.6297 8.8798-15.291 13.261-22.972 0.50005-0.87648 0.50005-0.87648 1.0102-1.7707 1.6948-2.9713 3.3889-5.943 5.0826-8.9149 3.007-5.2756 6.021-10.547 9.0345-15.819 1.6648-2.9124 3.3293-5.825 4.9938-8.7376 0.3298-0.57711 0.65961-1.1542 0.9994-1.7488 2.0111-3.5195 4.0211-7.0397 6.0302-10.56 7.4127-12.99 14.85-25.964 22.332-38.914 6.58-11.396 13.104-22.823 19.626-34.252 3.6686-6.4283 7.3422-12.854 11.015-19.28 0.99916-1.7482 1.9983-3.4965 2.9974-5.2448 0.3298-0.5771 0.6596-1.1542 0.99939-1.7488 2.0111-3.5195 4.0211-7.0397 6.0302-10.56 7.4127-12.99 14.85-25.964 22.332-38.914 6.58-11.396 13.104-22.823 19.626-34.252 3.6686-6.4283 7.3422-12.854 11.015-19.28 0.99916-1.7482 1.9983-3.4965 2.9974-5.2448 0.3298-0.5771 0.6596-1.1542 0.99939-1.7488 2.0111-3.5195 4.0211-7.0397 6.0302-10.56 7.4127-12.99 14.85-25.964 22.332-38.914 4.547-7.8747 9.0699-15.763 13.58-23.659 0.32911-0.57606 0.65823-1.1521 0.99731-1.7456 3.4302-6.0042 6.8566-12.01 10.274-18.022 1.4211-2.499 2.8438-4.9971 4.2667-7.4951 0.98367-1.7284 1.9649-3.4583 2.946-5.1882 4.3658-7.6633 8.9135-15.19 13.578-22.674z" fill="#CF9633"/>
<path transform="translate(939,66)" d="m0 0c2.7833 2.505 4.5296 5.302 6.4492 8.5039 0.67482 1.1196 1.3496 2.2391 2.0449 3.3926 0.35683 0.59643 0.71366 1.1929 1.0813 1.8074 1.5174 2.5362 3.0443 5.0666 4.5708 7.5973 0.78941 1.3087 1.5784 2.6176 2.3669 3.9268 3.7869 6.2835 7.6318 12.53 11.487 18.772 5.5766 9.0415 11.116 18.104 16.625 27.188 0.3569 0.58844 0.7138 1.1769 1.0815 1.7831 1.7637 2.9082 3.527 5.8166 5.2901 8.7252 7.8964 13.023 15.824 26.027 23.816 38.992 5.6377 9.1466 11.241 18.313 16.812 27.5 0.35663 0.58798 0.71325 1.176 1.0807 1.7818 1.764 2.9086 3.5275 5.8175 5.2909 8.7265 7.8964 13.023 15.824 26.027 23.816 38.992 5.6377 9.1466 11.241 18.313 16.812 27.5 0.35663 0.58798 0.71325 1.176 1.0807 1.7818 1.764 2.9086 3.5275 5.8175 5.2909 8.7265 7.8964 13.023 15.824 26.027 23.816 38.992 5.6377 9.1466 11.241 18.313 16.812 27.5 0.53494 0.88198 0.53494 0.88198 1.0807 1.7818 1.764 2.9086 3.5275 5.8175 5.2909 8.7265 7.8964 13.023 15.824 26.027 23.816 38.992 5.6377 9.1466 11.241 18.313 16.812 27.5 0.53494 0.88198 0.53494 0.88198 1.0807 1.7818 1.764 2.9086 3.5275 5.8175 5.2909 8.7265 7.8964 13.023 15.824 26.027 23.816 38.992 5.6377 9.1466 11.241 18.313 16.812 27.5 0.53494 0.88198 0.53494 0.88198 1.0807 1.7818 1.764 2.9086 3.5275 5.8175 5.2909 8.7265 7.9594 13.127 15.951 26.234 24.003 39.304 1.9977 3.2459 3.9951 6.492 5.9922 9.7383 1.3582 2.2064 2.7176 4.4122 4.0781 6.6172 1.9808 3.2122 3.9559 6.428 5.9297 9.6445 0.60586 0.97969 1.2117 1.9594 1.8359 2.9688 0.54914 0.89719 1.0983 1.7944 1.6641 2.7188 0.48469 0.78762 0.96938 1.5752 1.4688 2.3867 1.0312 1.9258 1.0312 1.9258 1.0312 3.9258 1.2365 0.11535 2.4729 0.2307 3.7468 0.34955 5.847 0.65372 11.551 1.8447 17.304 3.0577 1.1873 0.24683 2.3746 0.49367 3.5979 0.74798 3.2711 0.68094 6.5414 1.3656 9.8114 2.052 3.5226 0.73846 7.0463 1.4721 10.57 2.2064 6.8914 1.437 13.782 2.8785 20.672 4.3216 5.6595 1.1852 11.319 2.3684 16.98 3.5503 1.2173 0.25418 1.2173 0.25418 2.4591 0.5135 1.6481 0.34414 3.2962 0.68827 4.9443 1.0324 48.765 10.184 97.519 20.425 146.27 30.682 6.4721 1.3617 12.944 2.7232 19.416 4.0846 0.71499 0.15039 1.43 0.30078 2.1666 0.45573 23.459 4.9342 46.922 9.8506 70.388 14.755 0.78456 0.16399 1.5691 0.32798 2.3774 0.49693 10.378 2.1693 20.757 4.338 31.136 6.5066 55.918 11.684 111.83 23.414 167.73 35.188 0.84876 0.17877 1.6975 0.35755 2.572 0.54174 21.289 4.4841 42.577 8.9701 63.865 13.458-4.4098 9.1728-12.54 16.811-19.2 24.45-3.1629 3.6351-6.2673 7.3039-9.2996 11.05-4.0776 5.0335-8.3051 9.9233-12.558 14.808-4.9207 5.6545-9.7697 11.367-14.599 17.099-2.277 2.7009-4.5602 5.3965-6.8428 8.0928-0.9167 1.0833-1.8334 2.1666-2.75 3.25-9.1667 10.833-18.333 21.667-27.5 32.5-0.45367 0.53617-0.90734 1.0723-1.3748 1.6248-0.91742 1.0842-1.8349 2.1683-2.7524 3.2524-2.2806 2.6947-4.5602 5.3903-6.8376 8.0876-4.7792 5.6579-9.5796 11.296-14.41 16.91-3.4932 4.0613-6.9395 8.1502-10.312 12.312-4.1431 5.1056-8.4448 10.061-12.765 15.015-3.1618 3.6345-6.2656 7.3023-9.2971 11.047-4.1189 5.0881-8.4015 10.02-12.703 14.953-3.1617 3.6344-6.2654 7.3022-9.2969 11.047-4.1189 5.0881-8.4015 10.02-12.703 14.953-3.1617 3.6344-6.2654 7.3022-9.2969 11.047-4.0776 5.0335-8.3051 9.9233-12.558 14.808-4.9207 5.6545-9.7697 11.367-14.599 17.099-2.277 2.7009-4.5602 5.3965-6.8428 8.0928-0.9167 1.0833-1.8334 2.1666-2.75 3.25l-27.5 32.5c-0.45367 0.53617-0.90734 1.0723-1.3748 1.6248-0.91742 1.0842-1.8349 2.1683-2.7524 3.2524-2.2806 2.6947-4.5602 5.3903-6.8376 8.0876-4.7792 5.6579-9.5796 11.296-14.41 16.91-3.4932 4.0613-6.9395 8.1502-10.312 12.312-4.1431 5.1056-8.4448 10.061-12.765 15.015-3.1618 3.6345-6.2656 7.3023-9.2971 11.047-4.1189 5.0881-8.4015 10.02-12.703 14.953-3.1617 3.6344-6.2654 7.3022-9.2969 11.047-4.1189 5.0881-8.4015 10.02-12.703 14.953-3.1617 3.6344-6.2654 7.3022-9.2969 11.047-3.5397 4.3695-7.1845 8.6332-10.875 12.875-0.54817 0.63212-1.0963 1.2642-1.6611 1.9155-2.7227 3.1385-5.4556 6.2671-8.2061 9.3813-1.003 1.1507-2.0056 2.3018-3.0078 3.4531-0.46583 0.51998-0.93167 1.04-1.4116 1.5757-3.9259 4.5434-4.4983 7.9397-4.1484 13.79 0.14357 1.8504 0.29491 3.7001 0.45221 5.5493 0.081576 1.0246 0.16315 2.0493 0.2472 3.105 0.27688 3.4561 0.56377 6.9112 0.85057 10.367 0.20185 2.4935 0.40308 4.9871 0.60376 7.4807 0.43865 5.4332 0.88166 10.866 1.3285 16.298 0.66437 8.0781 1.3207 16.157 1.9754 24.236 1.1016 13.59 2.2096 27.18 3.3212 40.769 1.101 13.46 2.1991 26.92 3.2932 40.38 0.102 1.2549 0.102 1.2549 0.20606 2.5351 0.34532 4.2485 0.69058 8.497 1.0358 12.746 2.4464 30.105 4.8991 60.209 7.3557 90.313 2.3861 29.241 4.77 58.482 7.1504 87.723 0.07334 0.9009 0.14668 1.8018 0.22224 2.73 1.6025 19.685 3.2046 39.371 4.8064 59.056 0.4948 6.0806 0.98962 12.161 1.4844 18.242 0.27925 3.4316 0.55849 6.8632 0.83772 10.295 1.7127 21.047 3.4272 42.095 5.1441 63.142 0.09986 1.2242 0.09986 1.2242 0.20174 2.473 0.066298 0.81272 0.1326 1.6254 0.2009 2.4628 0.83234 10.204 1.6639 20.408 2.4953 30.612 0.6546 8.0334 1.3099 16.067 1.9663 24.1 0.48892 5.9851 0.97661 11.97 1.4638 17.956 0.19812 2.4313 0.39666 4.8625 0.59564 7.2937 0.26891 3.2862 0.53636 6.5725 0.80342 9.8589 0.078899 0.95971 0.1578 1.9194 0.23909 2.9082 0.070494 0.87124 0.14099 1.7425 0.21362 2.6401 0.061368 0.75211 0.12274 1.5042 0.18596 2.2791 0.10891 1.6505 0.12938 3.3065 0.12938 4.9606-4.7612-1.4785-9.2372-3.3933-13.746-5.5-0.75052-0.34748-1.501-0.69497-2.2743-1.053-2.4737-1.1461-4.9454-2.2966-7.4171-3.447-1.7498-0.81154-3.4998-1.6227-5.25-2.4336-3.6359-1.6849-7.2711-3.3712-10.906-5.0586-7.4959-3.4785-15-6.9391-22.504-10.4-4.0434-1.8648-8.0863-3.7305-12.129-5.5963-0.8033-0.37071-1.6066-0.74142-2.4342-1.1234-4.9361-2.2782-9.8712-4.5585-14.806-6.8403-4.1359-1.9125-8.2722-3.8242-12.409-5.7355-1.2176-0.56263-1.2176-0.56263-2.4597-1.1366-11.858-5.4775-23.741-10.898-35.64-16.286-10.718-4.8555-21.382-9.8189-32.026-14.833-9.9439-4.6816-19.924-9.2764-29.937-13.808-12.426-5.6239-24.816-11.32-37.188-17.062-0.86155-0.39988-1.7231-0.79976-2.6107-1.2118-3.494-1.6218-6.9879-3.2436-10.482-4.8657-9.1297-4.2375-18.268-8.4566-27.408-12.673-0.79962-0.36887-1.5992-0.73775-2.4231-1.1178-3.2272-1.4887-6.4544-2.9774-9.6818-4.4659-5.695-2.6267-11.389-5.2554-17.083-7.8851-15.889-7.3379-31.782-14.666-47.688-21.969-12.631-5.7994-25.256-11.612-37.875-17.438-0.80726-0.37269-1.6145-0.74538-2.4462-1.1294-6.5459-3.0223-13.091-6.0454-19.637-9.0685-5.7221-2.6428-11.444-5.2852-17.167-7.9271-0.80742-0.37277-1.6148-0.74554-2.4467-1.1296-11.804-5.4489-23.614-10.883-35.428-16.308-12.631-5.7994-25.256-11.612-37.875-17.438-0.79596-0.36737-1.5919-0.73475-2.412-1.1133-8.4879-3.9176-16.975-7.8381-25.458-11.765-3.6272-1.6787-7.2548-3.3563-10.883-5.0337-1.7372-0.80367-3.4742-1.6079-5.2108-2.4128-2.4021-1.1132-4.8051-2.2246-7.2083-3.3355-0.71369-0.33138-1.4274-0.66276-2.1627-1.0042-4.916-2.6921-4.916-2.6921-10.18-2.8668-0.71367 0.30926-1.4273 0.61852-2.1626 0.93715-0.81962 0.34949-1.6392 0.69897-2.4837 1.0591-1.3378 0.58771-1.3378 0.58771-2.7026 1.1873-0.93516 0.40163-1.8703 0.80327-2.8338 1.2171-3.0839 1.3266-6.162 2.6662-9.2404 4.0056-2.1498 0.92679-4.3 1.8525-6.4507 2.7771-4.3582 1.8741-8.7148 3.7519-13.07 5.6321-7.6583 3.301-15.341 6.5422-23.031 9.7678-3.8391 1.6104-7.6764 3.2248-11.514 4.8387-0.7729 0.32491-1.5458 0.64983-2.3421 0.98459-9.785 4.1142-19.563 8.2449-29.341 12.375-1.9025 0.80347-3.805 1.6069-5.7075 2.4104-3.8308 1.6178-7.6615 3.2358-11.492 4.8538-8.4771 3.5804-16.955 7.1596-25.432 10.739-4.6852 1.9781-9.3703 3.9563-14.055 5.9345-1.875 0.79167-3.75 1.5833-5.625 2.375l-326.25 137.75c-0.92793 0.39179-1.8559 0.78359-2.8119 1.1873-1.8769 0.79248-3.7539 1.585-5.6308 2.3774-4.6579 1.9667-9.3159 3.9334-13.974 5.9001-8.7899 3.7114-17.58 7.4226-26.37 11.133-4.154 1.7534-8.3079 3.5069-12.462 5.2604-1.9809 0.83617-3.9619 1.6723-5.9429 2.5083-2.7461 1.1589-5.4921 2.3181-8.238 3.4773-0.80521 0.33975-1.6104 0.6795-2.44 1.0295-0.75697 0.31961-1.5139 0.63921-2.2939 0.96851-0.71267 0.29963-1.4253 0.59925-2.1596 0.90796-1.3574 0.57901-2.7093 1.1708-4.0553 1.7759-2.8609 1.2798-4.8213 2.0994-7.9965 2.0994 0.61111-15.755 1.4924-31.476 2.5629-47.206 0.15784-2.3495 0.31544-4.699 0.47282-7.0485 0.42857-6.388 0.86049-12.776 1.293-19.163 0.41967-6.2022 0.8362-12.405 1.2531-18.607 0.85172-12.671 1.7059-25.343 2.5614-38.014 1.1679-17.298 2.3322-34.596 3.4957-51.894 0.54309-8.0744 1.0863-16.149 1.6297-24.223 0.054367-0.80798 0.10873-1.616 0.16475-2.4484 1.2913-19.189 2.5843-38.379 3.8775-57.568 0.056521-0.83866 0.11304-1.6773 0.17128-2.5414 0.57279-8.4991 1.1456-16.998 1.7184-25.497 1.2065-17.901 2.4129-35.802 3.6191-53.704 0.056643-0.84063 0.11329-1.6813 0.17164-2.5474 1.2931-19.191 2.5857-38.381 3.877-57.572 0.081379-1.2094 0.081379-1.2094 0.1644-2.4432 0.54155-8.048 1.083-16.096 1.6244-24.144 1.1626-17.284 2.3266-34.567 3.4933-51.851 0.84949-12.585 1.6974-25.17 2.5436-37.755 0.45851-6.8182 0.9178-13.636 1.3792-20.454 0.42201-6.2365 0.84187-12.473 1.26-18.71 0.1519-2.2599 0.30461-4.5198 0.45818-6.7796 0.20814-3.0644 0.4134-6.1289 0.61794-9.1935 0.060679-0.8831 0.12136-1.7662 0.18388-2.676 1.0633-8.2033 1.0633-8.2033-0.64375-15.866-0.48735-0.47985-0.97469-0.95971-1.4768-1.4541-0.5402-0.55244-1.0804-1.1049-1.637-1.6741-0.58515-0.56646-1.1703-1.1329-1.7732-1.7166-1.2083-1.2305-2.414-2.4636-3.6172-3.6992-0.88897-0.90371-0.88897-0.90371-1.7959-1.8257-2.2166-2.3183-4.2188-4.776-6.2119-7.2876-3.32-4.1485-6.808-8.0628-10.438-11.938-4.4383-4.7386-8.5914-9.6212-12.656-14.688-2.6758-3.211-5.4873-6.2628-8.3438-9.3125-4.4383-4.7387-8.5914-9.6212-12.656-14.688-2.6758-3.211-5.4873-6.2628-8.3438-9.3125-4.4383-4.7387-8.5914-9.6212-12.656-14.688-2.6758-3.211-5.4873-6.2628-8.3438-9.3125-4.4383-4.7387-8.5914-9.6212-12.656-14.688-3.1618-3.7941-6.5292-7.3753-9.9045-10.979-3.097-3.3253-6.0354-6.7209-8.8767-10.271-3.5089-4.375-7.2209-8.4827-11.062-12.562-4.6262-4.9131-8.9727-9.9512-13.191-15.223-2.6614-3.2018-5.4632-6.2397-8.3086-9.2773-4.4383-4.7386-8.5914-9.6212-12.656-14.688-2.6758-3.211-5.4873-6.2628-8.3438-9.3125-4.4383-4.7387-8.5914-9.6212-12.656-14.688-2.6758-3.211-5.4873-6.2628-8.3438-9.3125-4.4383-4.7387-8.5914-9.6212-12.656-14.688-2.6758-3.211-5.4873-6.2628-8.3438-9.3125-4.4383-4.7387-8.5914-9.6212-12.656-14.688-2.6758-3.211-5.4873-6.2628-8.3438-9.3125-4.4383-4.7387-8.5914-9.6212-12.656-14.688-2.6758-3.211-5.4873-6.2628-8.3438-9.3125-4.4383-4.7387-8.5914-9.6212-12.656-14.688-3.1618-3.7941-6.5292-7.3753-9.9045-10.979-3.097-3.3253-6.0354-6.7209-8.8767-10.271-3.5089-4.375-7.2209-8.4827-11.062-12.562-4.6262-4.9131-8.9727-9.9512-13.191-15.223-2.6614-3.2018-5.4632-6.2397-8.3086-9.2773-4.4383-4.7386-8.5914-9.6212-12.656-14.688-2.6758-3.211-5.4873-6.2628-8.3438-9.3125-4.4383-4.7387-8.5914-9.6212-12.656-14.688-2.6758-3.211-5.4873-6.2628-8.3438-9.3125-4.4321-4.732-8.582-9.6051-12.637-14.668-3.2478-3.892-6.7009-7.5787-10.203-11.242-0.48211-0.51047-0.96422-1.0209-1.4609-1.5469-0.63676-0.66479-0.63676-0.66479-1.2864-1.343-2.0161-2.4258-3.6755-5.0701-5.4128-7.7 13.389-3.8639 26.804-7.6093 40.266-11.211 1.8093-0.48549 3.6186-0.97114 5.4278-1.4569 3.8465-1.0325 7.6932-2.0641 11.54-3.0948 9.346-2.5042 18.691-5.0138 28.035-7.5226 3.2288-0.86678 6.4576-1.7334 9.6865-2.5999 20.276-5.4422 40.545-10.908 60.813-16.378 31.156-8.4078 62.316-16.799 93.481-25.174 0.9619-0.25852 1.9238-0.51704 2.9148-0.7834 15.587-4.1892 31.175-8.3774 46.762-12.566 14.608-3.9249 29.215-7.8501 43.823-11.776 0.96222-0.2586 1.9244-0.5172 2.9158-0.78364 31.118-8.3634 62.232-16.746 93.342-25.14 20.879-5.6334 41.76-11.261 62.645-16.873 0.98478-0.26464 1.9696-0.52928 2.9842-0.80194 8.8785-2.3859 17.757-4.7713 26.636-7.1558 19.756-5.3056 39.51-10.617 59.253-15.968 2.6704-0.72375 5.341-1.4472 8.0115-2.1707 7.463-2.0219 14.926-4.0448 22.387-6.074 2.9642-0.80568 5.9289-1.6094 8.8938-2.4126 1.3655-0.37043 2.7308-0.74176 4.0957-1.114 1.8468-0.50363 3.6945-1.004 5.5422-1.5041 1.0297-0.27989 2.0593-0.55979 3.1202-0.84816 2.424-0.59105 2.424-0.59105 4.424-0.59105 0.40944-1.0793 0.40944-1.0793 0.82715-2.1804 1.1535-2.773 2.4702-5.3144 3.9385-7.9329 0.82951-1.4821 0.82951-1.4821 1.6758-2.9941 0.59684-1.0577 1.1937-2.1154 1.8086-3.2051 0.62262-1.1079 1.2452-2.2159 1.8867-3.3574 4.7844-8.4858 9.6783-16.905 14.61-25.306 4.1737-7.1262 8.2369-14.308 12.253-21.524 5.0983-9.1572 10.313-18.237 15.614-27.278 4.469-7.6297 8.8798-15.291 13.261-22.972 0.50005-0.87648 0.50005-0.87648 1.0102-1.7707 1.6948-2.9713 3.3889-5.943 5.0826-8.9149 3.007-5.2756 6.021-10.547 9.0345-15.819 1.6648-2.9124 3.3293-5.825 4.9938-8.7376 0.3298-0.57711 0.65961-1.1542 0.9994-1.7488 2.0111-3.5195 4.0211-7.0397 6.0302-10.56 7.4127-12.99 14.85-25.964 22.332-38.914 6.58-11.396 13.104-22.823 19.626-34.252 3.6686-6.4283 7.3422-12.854 11.015-19.28 0.99916-1.7482 1.9983-3.4965 2.9974-5.2448 0.3298-0.5771 0.6596-1.1542 0.99939-1.7488 2.0111-3.5195 4.0211-7.0397 6.0302-10.56 7.4127-12.99 14.85-25.964 22.332-38.914 6.58-11.396 13.104-22.823 19.626-34.252 3.6686-6.4283 7.3422-12.854 11.015-19.28 0.99916-1.7482 1.9983-3.4965 2.9974-5.2448 0.3298-0.5771 0.6596-1.1542 0.99939-1.7488 2.0111-3.5195 4.0211-7.0397 6.0302-10.56 7.4127-12.99 14.85-25.964 22.332-38.914 4.547-7.8747 9.0699-15.763 13.58-23.659 0.32911-0.57606 0.65823-1.1521 0.99731-1.7456 3.4302-6.0042 6.8566-12.01 10.274-18.022 1.4211-2.499 2.8438-4.9971 4.2667-7.4951 0.98367-1.7284 1.9649-3.4583 2.946-5.1882 4.3658-7.6633 8.9135-15.19 13.578-22.674zm2 154c-0.35079 0.63164-0.70157 1.2633-1.063 1.9141-7.0584 12.695-14.201 25.328-21.547 37.858-4.4701 7.6316-8.8821 15.295-13.265 22.978-0.33336 0.58432-0.66673 1.1686-1.0102 1.7707-1.6948 2.9713-3.3889 5.943-5.0826 8.9149-3.0069 5.2754-6.0208 10.547-9.0342 15.818-1.6663 2.9152-3.3321 5.8306-4.998 8.746-0.66666 1.1667-1.3333 2.3333-2 3.5l-1 1.75c-3 5.25-3 5.25-4 6.9999-0.66678 1.1669-1.3335 2.3337-2.0003 3.5006-1.6649 2.9137-3.33 5.8273-4.9953 8.7407-3.0212 5.2856-6.0412 10.572-9.0557 15.861-1.6905 2.9662-3.3819 5.9319-5.0737 8.8974-0.33256 0.58295-0.66512 1.1659-1.0078 1.7665-4.6151 8.0859-9.2835 16.139-13.992 24.171-5.3273 9.0882-10.503 18.253-15.625 27.458-4.5608 8.1752-9.2597 16.263-14 24.335-4.1724 7.1248-8.2348 14.305-12.25 21.52-5.0983 9.1572-10.313 18.237-15.614 27.278-4.469 7.6297-8.8798 15.291-13.261 22.972-0.50005 0.87648-0.50005 0.87648-1.0102 1.7707-1.6948 2.9713-3.3889 5.943-5.0826 8.9149-3.007 5.2756-6.021 10.547-9.0345 15.819-1.6648 2.9124-3.3293 5.825-4.9938 8.7376-0.3298 0.57711-0.65961 1.1542-0.9994 1.7488-2.0111 3.5195-4.021 7.0396-6.0301 10.56-11.33 19.855-11.33 19.855-16.892 29.5-0.95483 1.6558-0.95483 1.6558-1.929 3.345-1.2553 2.1712-2.5141 4.3404-3.7769 6.5073-2.9843 5.1323-5.8969 10.282-8.6653 15.534-0.52239 0.97139-1.0448 1.9428-1.583 2.9436-0.9684 1.8083-1.9149 3.6285-2.834 5.4624-2.2269 4.1142-3.8793 6.7003-8.3994 8.2698-1.6252 0.40528-3.2575 0.78245-4.8945 1.1367-1.8857 0.52018-3.7698 1.0466-5.6523 1.5781-2.0943 0.56-4.1894 1.1172-6.2852 1.6719-2.3216 0.61972-4.6432 1.2395-6.9648 1.8594-1.1793 0.31389-2.3587 0.62777-3.5737 0.95117-5.5109 1.4692-11.017 2.9547-16.524 4.4395-2.1666 0.58342-4.3333 1.1668-6.5 1.75l-3.25 0.875c-3.25 0.875-6.5 1.75-9.75 2.625-1.0722 0.28867-2.1444 0.57734-3.249 0.87476-2.1699 0.58419-4.3398 1.1683-6.5098 1.7524-5.3672 1.4448-10.734 2.8903-16.101 4.3376-12.814 3.4548-25.634 6.8862-38.459 10.302-11.337 3.0213-22.668 6.0689-33.996 9.124-5.3948 1.4545-10.79 2.9066-16.186 4.3589-2.1667 0.58332-4.3333 1.1667-6.5 1.75-107.25 28.875-214.5 57.75-370.5 99.75 0 5.0894 2.0698 6.6544 5.4375 10.062 1.1158 1.1656 2.2291 2.3336 3.3398 3.5039 0.55156 0.58024 1.1031 1.1605 1.6714 1.7583 2.1323 2.3028 4.0952 4.722 6.0513 7.1753 3.343 4.1667 6.8511 8.1042 10.5 12 4.4383 4.7387 8.5914 9.6212 12.656 14.688 2.6758 3.211 5.4873 6.2628 8.3438 9.3125 3.6489 3.8958 7.157 7.8333 10.5 12 4.3393 5.4044 9.004 10.45 13.727 15.516 4.3045 4.6179 8.4166 9.392 12.512 14.195 1.0245 1.2007 2.0493 2.4012 3.0742 3.6016 0.51732 0.60618 1.0346 1.2124 1.5676 1.8369 3.2049 3.7413 6.472 7.4117 9.8074 11.038 3.1899 3.4739 6.233 7.0116 9.1875 10.688 3.8672 4.7964 7.9748 9.2954 12.183 13.789 3.9017 4.1895 7.5151 8.5581 11.098 13.024 2.6758 3.211 5.4873 6.2628 8.3438 9.3125 4.4383 4.7387 8.5914 9.6212 12.656 14.688 2.6758 3.211 5.4873 6.2628 8.3438 9.3125 4.4383 4.7387 8.5914 9.6212 12.656 14.688 2.6758 3.211 5.4873 6.2628 8.3438 9.3125 4.4383 4.7387 8.5914 9.6212 12.656 14.688 2.6758 3.211 5.4873 6.2628 8.3438 9.3125 4.4383 4.7387 8.5914 9.6212 12.656 14.688 3.1618 3.7941 6.5292 7.3753 9.9045 10.979 3.097 3.3253 6.0354 6.7209 8.8767 10.271 3.5089 4.375 7.2209 8.4827 11.062 12.562 4.6262 4.9131 8.9727 9.9512 13.191 15.223 2.6614 3.2018 5.4632 6.2397 8.3086 9.2773 4.4383 4.7386 8.5914 9.6212 12.656 14.688 2.6758 3.211 5.4873 6.2628 8.3438 9.3125 4.4383 4.7387 8.5914 9.6212 12.656 14.688 2.6758 3.211 5.4873 6.2628 8.3438 9.3125 4.4632 4.7656 8.685 9.6352 12.684 14.805 2.2875 2.8157 2.2875 2.8157 5.3516 5.2031 3.8555 3.2243 7.5262 6.5648 8.2976 11.713 0.0040841 2.6731-0.16304 5.2875-0.38741 7.9513-0.097737 1.551-0.097737 1.551-0.19745 3.1333-0.14788 2.3092-0.30742 4.6177-0.47668 6.9254-0.28505 3.9623-0.52857 7.9261-0.76093 11.892-0.5017 8.48-1.0457 16.957-1.5974 25.434-0.16534 2.5445-0.32963 5.089-0.49363 7.6335-2.0087 31.147-4.1815 62.281-6.3976 93.414-0.98645 13.86-1.9544 27.721-2.8966 41.584-0.076317 1.1224-0.15263 2.2447-0.23126 3.4011-1.2112 17.865-2.3708 35.734-3.5226 53.603-0.072632 1.1266-0.14527 2.2532-0.2201 3.414-0.29986 4.6515-0.59966 9.303-0.89945 13.954-0.15293 2.3728-0.30587 4.7457-0.45882 7.1185-0.15342 2.3801-0.30682 4.7603-0.4602 7.1404-1.9286 29.92-3.8885 59.837-6.02 89.744-0.050198 0.70454-0.1004 1.4091-0.15211 2.135-0.43922 6.1625-0.87938 12.325-1.3202 18.487-1.0385 14.541-2.0401 29.084-3.0276 43.628-0.082893 1.2207-0.16579 2.4414-0.25119 3.6992-1.2973 19.157-2.5073 38.317-3.5613 57.488 6.1883-1.9658 12.172-4.2301 18.141-6.7812 1.2946-0.54829 1.2946-0.54829 2.6153-1.1077 2.8327-1.2006 5.6634-2.4058 8.4941-3.6111 2.0096-0.85258 4.0194-1.7048 6.0293-2.5566 4.1725-1.7687 8.3443-3.5391 12.516-5.3105 8.6375-3.6667 17.283-7.314 25.929-10.961 4.6758-1.9729 9.351-3.9472 14.026-5.9214 1.875-0.79167 3.75-1.5833 5.625-2.375l146.25-61.75c0.92807-0.39185 1.8561-0.78371 2.8123-1.1874 1.8755-0.79188 3.751-1.5837 5.6265-2.3756 4.6798-1.9759 9.3595-3.9519 14.039-5.9282 9.4983-4.0111 18.998-8.0199 28.499-12.024 8.4686-3.5696 16.935-7.1447 25.398-10.726 4.4009-1.8622 8.8028-3.7219 13.208-5.5749 4.0757-1.7147 8.1484-3.4364 12.219-5.1635 1.4786-0.62592 2.9582-1.2493 4.4391-1.8699 16.088-6.7453 27.456-12.733 34.867-29.209 2.0229-5.6913 2.0589-10.988 1.9484-16.975 0.0013142-1.9048 0.0013142-1.9048 0.002655-3.8481 0.0017014-3.4377-0.033239-6.874-0.075444-10.311-0.03785-3.6087-0.041059-7.2174-0.048152-10.826-0.018549-6.8139-0.067649-13.627-0.1281-20.441-0.067377-7.7655-0.10013-15.531-0.13017-23.297-0.06249-15.956-0.16783-31.912-0.30194-47.867-0.73204 0.11876-1.4641 0.23752-2.2183 0.35987-3.3718 0.54336-6.7451 1.0774-10.118 1.6113-1.1512 0.18692-2.3023 0.37384-3.4883 0.56642-9.409 1.4787-18.573 2.0232-28.085 1.874-2.4517-0.037369-4.9018-0.04101-7.3538-0.040527-9.0782-0.039921-17.801-0.61587-26.736-2.3711-0.73984-0.14051-1.4797-0.28102-2.2419-0.42578-26.545-5.3822-51.414-20.357-66.977-42.77-3.6648-5.7843-6.7773-11.662-9.5195-17.93-4.6526-10.602-9.9147-19.905-17.262-28.875-0.9726-1.2027-0.9726-1.2027-1.9648-2.4297-7.2857-8.6118-16.3-15.111-25.402-21.672-17.88-12.892-17.88-12.892-19.062-19.184-0.0078125-2.2148-0.0078125-2.2148 0.42969-5.7148 13.674-5.967 28.262-3.3043 42 1 0.91266 0.27715 1.8253 0.5543 2.7656 0.83984 17.762 6.2167 29.852 20.567 39.234 36.16 4.7927 7.8597 9.9256 15.068 16 22 0.67547 0.77215 1.3509 1.5443 2.0469 2.3398 14.979 16.021 36.557 25.651 58.38 26.786 21.483 0.64301 42.087-2.383 61.573-12.126 0.73414-2.3483 0.73414-2.3483 1.2617-5.2227 0.22792-1.0884 0.45584-2.1767 0.69067-3.2981 0.36388-1.7532 0.36388-1.7532 0.73511-3.5417 4.2273-19.171 11.349-34.079 24.312-48.938l2-1v-2c-0.8018-0.11481-1.6036-0.22961-2.4297-0.3479-62.877-9.1205-128.13-25.84-168.67-78.901-9.8896-13.254-17.84-27.376-23.9-42.751-0.3221-0.80502-0.64421-1.61-0.97607-2.4395-13.371-33.77-17.381-68.014-17.399-104.06-0.002991-1.6365-0.002991-1.6365-0.0060425-3.3061 0.0036071-17.409 0.75378-34.082 5.4435-50.944 0.30309-1.102 0.60618-2.204 0.91846-3.3394 7.4712-26.136 20.741-49.115 38.304-69.704 1.8909-2.1813 1.8909-2.1813 2.7148-5.207-0.38093-2.1333-0.38093-2.1333-1.1445-4.4297-0.2649-0.87914-0.5298-1.7583-0.80273-2.6641-0.56471-1.8152-1.1298-3.6303-1.6953-5.4453-3.9239-13.023-4.8312-25.826-4.8574-39.336-0.0026788-0.82327-0.0053577-1.6465-0.0081177-2.4948 0.01522-21.785 2.1065-49.581 13.688-68.564 3.0506-1.7871 6.3271-1.4612 9.7578-1.3789 0.76417 0.011279 1.5283 0.022559 2.3157 0.03418 37.22 0.89111 73.749 22.087 104.63 41.044 0.88679 0.54423 1.7736 1.0885 2.6873 1.6492 2.1754 1.4192 4.1246 2.9443 6.1292 4.5891 3.1779 2.3411 3.1779 2.3411 6.9375 1.8203 1.3582-0.34949 2.7083-0.73096 4.0508-1.1367 1.6101-0.41495 3.2208-0.82755 4.832-1.2383 0.87737-0.23413 1.7547-0.46825 2.6587-0.70947 16.389-4.2964 32.811-7.2334 49.634-9.0522 1.1235-0.1217 1.1235-0.1217 2.2697-0.24585 53.334-5.6834 109.68-4.3769 161.48 10.789 4.2564 0.95285 8.3207 1.6273 12.459-0.049805 0.54189-0.38446 1.0838-0.76893 1.6421-1.165 0.63535-0.43425 1.2707-0.86851 1.9253-1.3159 0.67176-0.4784 1.3435-0.95681 2.0356-1.4497 1.5126-1.0227 3.0284-2.0408 4.5469-3.0547 0.79084-0.52948 1.5817-1.059 2.3965-1.6045 30.185-19.747 67.429-39.019 104.37-38.653 0.87463 0.0045117 1.7493 0.0090234 2.6504 0.013672 2.1374 0.01168 4.2748 0.029611 6.4121 0.048828 0.67385 2.2321 1.3449 4.465 2.0117 6.6992 0.72502 2.4215 1.4577 4.8401 2.1953 7.2578 10.06 33.221 13.436 69.14 2.4192 102.63-1.7095 5.1161-1.7095 5.1161-1.6262 10.414 1.5816 2.2223 1.5816 2.2223 3.8125 4.3125 33.707 35.718 44.357 85.596 43.297 133.2-0.80777 25.758-3.4906 51.791-11.109 76.488-0.43337 1.4251-0.43337 1.4251-0.87549 2.8789-4.0025 13.011-8.5852 25.183-15.125 37.121-0.48984 0.96551-0.97969 1.931-1.4844 2.9258-21.067 40.891-60.841 68.43-103.52 83.074-5.2907 1.6809-10.605 3.2683-15.938 4.8125-0.97793 0.2835-0.97793 0.2835-1.9756 0.57272-15.246 4.3917-30.286 7.3645-45.973 9.4925-2.2485 0.3071-4.4957 0.62257-6.7429 0.93872-1.0234 0.13445-1.0234 0.13445-2.0675 0.27162-3.4503 0.48785-6.3009 1.1056-9.3036 2.912 0.94359 0.94746 0.94359 0.94746 1.9062 1.9141 14.435 15.087 22.125 33.74 26.094 54.086 0.16929 0.80057 0.33858 1.6011 0.513 2.426 1.7619 9.1542 1.7595 18.177 1.7265 27.453 0.001115 1.7754 0.0031762 3.5508 0.0061035 5.3261 0.0046957 3.8009 0.00363 7.6017-0.0017757 11.403-0.0076551 6.0196 0.0030959 12.039 0.017202 18.059 0.037613 17.11 0.05593 34.219 0.044388 51.329-0.0062285 9.4667 0.0054211 18.933 0.036445 28.4 0.018581 5.9746 0.015408 11.949-0.0041676 17.923-0.0069144 3.7264 0.0071385 7.4525 0.026949 11.179 0.0050179 1.7172 0.0016391 3.4344-0.011133 5.1515-0.083929 12.155 1.1158 23.403 9.834 32.726 1.0113 1.1254 1.0113 1.1254 2.043 2.2734 9.0433 7.6785 20.487 12.175 31.145 17.164 1.7339 0.81616 3.4677 1.6326 5.2014 2.4492 8.8131 4.1447 17.64 8.2531 26.541 12.207 8.7718 3.9024 17.48 7.9419 26.195 11.969 0.83032 0.38355 1.6606 0.76709 2.5161 1.1623 8.7212 4.0286 17.44 8.0616 26.158 12.097 3.4809 1.6111 6.9623 3.2209 10.444 4.8306 2.4258 1.1222 4.8507 2.2462 7.2755 3.3703 7.9379 3.6733 15.894 7.2875 23.931 10.74 4.1182 1.7778 8.1178 3.7017 12.112 5.7371 5.1729 2.6238 10.389 5.0785 15.688 7.4375 9.9985 4.4555 19.939 9.0328 29.875 13.625 1.6803 0.77621 3.3607 1.5524 5.041 2.3286 7.8793 3.6405 15.757 7.2847 23.633 10.931 3.4809 1.6111 6.9623 3.2209 10.444 4.8306 2.4258 1.1222 4.8507 2.2462 7.2755 3.3703 7.1315 3.3003 14.276 6.5553 21.485 9.6838 7.6718 3.33 15.248 6.8446 22.809 10.418 1.3468 0.63518 2.6936 1.2703 4.0405 1.9053 2.7857 1.3139 5.571 2.6289 8.356 3.9443 16.76 7.9144 16.76 7.9144 33.604 15.65 0.80526 0.36722 1.6105 0.73444 2.4402 1.1128 3.6358 1.7663 3.6358 1.7663 7.5598 2.3872 0.25042-8.9689-0.59946-17.775-1.4233-26.694-1.8315-19.886-3.412-39.788-4.9175-59.7-1.4528-19.211-2.9427-38.416-4.6592-57.605-1.7171-19.196-3.2047-38.407-4.661-57.624-1.3683-18.051-2.7913-36.094-4.4015-54.126-1.5269-17.099-2.8583-34.208-4.1204-51.329-1.3049-17.653-2.7688-35.288-4.3171-52.921-1.7177-19.564-3.301-39.131-4.7357-58.718-0.95806-13.053-1.985-26.099-3.1237-39.138-0.057872-0.66373-0.11574-1.3275-0.17537-2.0113-0.62055-7.1104-1.2507-14.22-1.891-21.329-0.20706-2.3346-0.41409-4.6693-0.62109-7.0039-0.09666-1.0487-0.19332-2.0973-0.29291-3.1778-1.5008-17.035-1.5008-17.035 0.8515-21.478 0.71801-0.76957 1.436-1.5391 2.1758-2.332 0.81855-0.91137 1.6371-1.8227 2.4805-2.7617 0.67942-0.72776 0.67942-0.72776 1.3726-1.4702 2.152-2.3305 4.2137-4.7362 6.2849-7.1384 1.6768-1.9447 3.363-3.8809 5.0496-5.8171 2.598-2.9977 5.1289-6.0416 7.625-9.125 4.1189-5.0881 8.4015-10.02 12.703-14.953 3.1617-3.6344 6.2654-7.3022 9.2969-11.047 4.0776-5.0335 8.3051-9.9233 12.558-14.808 4.9207-5.6545 9.7697-11.367 14.599-17.099 2.277-2.7009 4.5602-5.3965 6.8428-8.0928 0.9167-1.0833 1.8334-2.1666 2.75-3.25 12.833-15.167 25.667-30.333 38.5-45.5 0.45367-0.53617 0.90734-1.0723 1.3748-1.6248 0.91742-1.0842 1.8349-2.1683 2.7524-3.2524 2.2806-2.6947 4.5602-5.3903 6.8376-8.0876 4.7792-5.6579 9.5796-11.296 14.41-16.91 3.4932-4.0613 6.9395-8.1502 10.312-12.312 4.1431-5.1056 8.4448-10.061 12.765-15.015 3.1618-3.6345 6.2656-7.3023 9.2971-11.047 4.1189-5.0881 8.4015-10.02 12.703-14.953 3.1617-3.6344 6.2654-7.3022 9.2969-11.047 4.1189-5.0881 8.4015-10.02 12.703-14.953 3.1617-3.6344 6.2654-7.3022 9.2969-11.047 4.0776-5.0335 8.3051-9.9233 12.558-14.808 4.9207-5.6545 9.7697-11.367 14.599-17.099 2.277-2.7009 4.5602-5.3965 6.8428-8.0928 0.9167-1.0833 1.8334-2.1666 2.75-3.25 12.833-15.167 25.667-30.333 38.5-45.5 0.45407-0.53665 0.90814-1.0733 1.376-1.6262 0.91332-1.0793 1.8267-2.1586 2.7402-3.2378 2.3435-2.7688 4.6854-5.5391 7.0244-8.3118 4.9838-5.9047 9.9876-11.788 15.109-17.574-2.7012-2.7012-4.8733-2.7871-8.613-3.553-0.68316-0.14209-1.3663-0.28417-2.0702-0.43056-2.28-0.47232-4.562-0.9338-6.8441-1.3954-1.6058-0.33051-3.2115-0.66172-4.817-0.99358-3.4169-0.70481-6.8348-1.4049-10.253-2.1013-5.3553-1.0909-10.709-2.1919-16.061-3.2948-7.0092-1.4434-14.019-2.883-21.03-4.3198-10.693-2.1922-21.379-4.4179-32.061-6.6616-1.6227-0.34008-3.2454-0.68009-4.8682-1.02-15.75-3.3008-31.496-6.6234-47.242-9.9414-16.667-3.5116-33.338-7.0061-50.014-10.476-0.98464-0.20489-1.9693-0.40978-2.9838-0.62088-3.9037-0.81226-7.8074-1.6245-11.711-2.4366-9.7905-2.0373-19.579-4.0816-29.368-6.13-0.85838-0.17962-1.7168-0.35925-2.6012-0.54431-17.108-3.581-34.211-7.1865-51.314-10.79-16.67-3.5121-33.344-7.0072-50.022-10.478-0.98464-0.20489-1.9693-0.40978-2.9838-0.62088-3.9037-0.81226-7.8074-1.6245-11.711-2.4366-16.112-3.3527-32.219-6.7257-48.326-10.104-3.363-0.70518-6.7261-1.4098-10.089-2.1143-6.2642-1.3125-12.528-2.6269-18.792-3.9424-2.4291-0.50994-4.8584-1.0194-7.2878-1.5282-5.696-1.1933-11.39-2.3957-17.08-3.618-4.7818-1.0238-9.5724-1.9784-14.375-2.9019-2.4458-0.49163-4.8915-0.98356-7.3372-1.4758-1.6994-0.30837-1.6994-0.30837-3.4331-0.62297-6.1005-1.2597-9.8978-2.4575-13.53-7.683-1.1462-1.9625-2.1951-3.858-3.0291-5.9753-2.4281-5.6259-5.6579-10.667-8.9023-15.852-1.2088-1.9825-2.4145-3.9669-3.6172-5.9531-0.60296-0.99322-1.2059-1.9864-1.8271-3.0098-0.59587-0.98162-1.1917-1.9632-1.8057-2.9746-7.2372-11.917-14.496-23.819-21.812-35.688-5.6377-9.1465-11.241-18.313-16.812-27.5-0.53494-0.88198-0.53494-0.88198-1.0807-1.7818-1.764-2.9086-3.5275-5.8175-5.2909-8.7265-7.8964-13.023-15.824-26.027-23.816-38.992-5.6377-9.1466-11.241-18.313-16.812-27.5-0.53494-0.88198-0.53494-0.88198-1.0807-1.7818-1.764-2.9086-3.5275-5.8175-5.2909-8.7265-7.8964-13.023-15.824-26.027-23.816-38.992-5.6377-9.1466-11.241-18.313-16.812-27.5-0.35663-0.58798-0.71325-1.176-1.0807-1.7818-1.764-2.9086-3.5275-5.8175-5.2909-8.7265-7.8964-13.023-15.824-26.027-23.816-38.992-5.6377-9.1466-11.241-18.313-16.812-27.5-0.35663-0.58798-0.71325-1.176-1.0807-1.7818-1.764-2.9086-3.5275-5.8175-5.2909-8.7265-7.8964-13.023-15.824-26.027-23.816-38.992-7.4257-12.047-14.777-24.139-22.112-36.241-4.6661-7.6973-9.343-15.388-14.032-23.071-1.8881-3.0951-3.7622-6.1975-5.6172-9.3125-0.56255-0.93695-0.56255-0.93695-1.1365-1.8928-0.95019-1.5836-1.8935-3.1714-2.8362-4.7595-0.47953-0.6716-0.95906-1.3432-1.4531-2.0352h-2z" fill="#EACA4D"/>
</svg>
